<?xml version="1.0" standalone="no"?><!DOCTYPE svg PUBLIC "-//W3C//DTD SVG 1.1//EN" "http://www.w3.org/Graphics/SVG/1.1/DTD/svg11.dtd"><svg t="1581580519896" class="icon" viewBox="0 0 1024 1024" version="1.1" xmlns="http://www.w3.org/2000/svg" p-id="1470" xmlns:xlink="http://www.w3.org/1999/xlink" width="32" height="32"><defs><style type="text/css"></style></defs><path d="M884.051473 298.665173h-119.466069A282.878586 282.878586 0 0 0 767.99872 255.99872 255.99872 255.99872 0 0 0 256.00128 255.99872a282.878586 282.878586 0 0 0 3.413316 42.666453h-119.466069a109.226121 109.226121 0 0 0-16.639917 0 125.439373 125.439373 0 0 0-85.332907 49.066422 127.99936 127.99936 0 0 0-24.746542 95.99952l62.719686 469.330986a127.99936 127.99936 0 0 0 127.99936 110.932779h618.663573a127.99936 127.99936 0 0 0 127.99936-110.932779l62.719687-469.330986a119.466069 119.466069 0 0 0 0-17.066582 127.99936 127.99936 0 0 0-129.279354-127.99936zM512 85.332907a170.665813 170.665813 0 0 1 170.665813 170.665813 158.292542 158.292542 0 0 1-5.546639 42.666453H346.880826A158.292542 158.292542 0 0 1 341.334187 255.99872a170.665813 170.665813 0 0 1 170.665813-170.665813z m414.291262 346.878265l-62.719687 469.330987a42.666453 42.666453 0 0 1-42.666453 37.119814H202.668213a42.666453 42.666453 0 0 1-42.666453-37.119814l-62.719686-469.330987a42.666453 42.666453 0 0 1 8.53329-31.573175A42.666453 42.666453 0 0 1 134.401888 383.99808h749.649585a42.666453 42.666453 0 0 1 42.666453 42.666453s-0.426665 3.839981-0.426664 5.546639z" p-id="1471"></path><path d="M345.174167 537.170647m-63.99968 0a63.99968 63.99968 0 1 0 127.99936 0 63.99968 63.99968 0 1 0-127.99936 0Z" p-id="1472"></path><path d="M700.585724 537.170647m-63.99968 0a63.99968 63.99968 0 1 0 127.99936 0 63.99968 63.99968 0 1 0-127.99936 0Z" p-id="1473"></path></svg>